<svg width="85" height="101" viewBox="0 0 85 101" fill="none" xmlns="http://www.w3.org/2000/svg">
<path fill-rule="evenodd" clip-rule="evenodd" d="M44.0664 1.13195C26.0275 3.3958 15.6615 23.0818 22.6126 41.875C23.0012 42.9256 23.2852 43.8094 23.2435 43.839C21.1185 45.3538 18.2004 48.2039 17.0251 49.9121L16.3708 50.8631L15.7443 49.3202C15.3996 48.4716 14.7858 46.9077 14.3803 45.8446C13.2165 42.7938 12.0662 41.8441 10.5704 42.6992C9.87553 43.0964 8.39104 43.0538 6.46891 42.5816C2.01147 41.4866 0.0288826 42.8558 2.76039 45.1428C6.09779 47.9368 7.58541 52.0867 8.32098 60.6538C8.48632 62.5797 8.6602 64.1941 8.70753 64.2412C8.984 64.5177 10.6659 63.9499 10.6359 63.5905C10.6184 63.3795 10.5041 61.9325 10.3822 60.3751C9.80297 52.9789 8.6454 48.9868 6.13135 45.714L5.14642 44.432L6.73537 44.7816C8.62017 45.1963 9.8134 45.2193 10.8204 44.86C11.7113 44.5423 11.6442 44.4441 13.0134 48.0702C15.1753 53.796 16.5009 55.7458 19.055 56.9578C23.213 58.931 25.5686 61.3325 25.9297 63.9664C26.0406 64.7762 26.0811 64.8185 27.0373 65.1242C28.2814 65.5222 28.2636 65.5472 27.9888 63.7811C27.4303 60.188 25.2786 57.817 20.2253 55.2258C18.3307 54.2542 17.4879 53.4238 17.7046 52.7414C18.0638 51.6093 21.1137 48.1695 23.3016 46.4286L24.2163 45.7007L24.5493 46.2507C26.506 49.4828 27.1747 50.0653 28.0187 49.2724C28.4488 48.8684 28.4555 48.868 28.6931 49.2485C29.1408 49.9655 30.4931 49.5466 30.4918 48.6912C30.4914 48.5108 30.1076 47.3336 29.6387 46.0751L28.7861 43.7871L29.5903 44.4802C36.5906 50.5111 62.4095 50.277 68.5597 44.1268L69.5208 43.1656L71.4171 44.2996C80.5073 49.7353 84.2058 57.9234 81.1612 65.8721L80.8138 66.7794L81.2877 67.3597C81.5486 67.6787 81.8634 68.1055 81.9875 68.3077C82.4334 69.0352 83.8541 65.0887 84.2152 62.1202C84.9771 55.8532 81.2177 48.4405 75.1694 44.2844L74.0656 43.5261L74.4249 42.8197C74.9668 41.7539 75.9721 38.6437 76.484 36.4491C79.6367 22.93 74.9419 10.5207 64.3789 4.45308C59.4611 1.62817 51.0593 0.254387 44.0664 1.13195ZM52.4973 3.83531C66.011 7.2634 74.2827 22.4079 71.1104 37.914C70.3836 41.4659 70.1791 41.7991 69.5413 40.4695C68.2234 37.723 63.1096 35.548 56.1713 34.7832C52.8259 34.4146 53.0613 34.4999 52.8116 33.5662C51.6642 29.2762 46.3102 29.1357 45.0809 33.3634C44.7561 34.4801 44.8278 34.4521 41.2325 34.8618C34.8006 35.5943 29.5476 37.8049 28.449 40.2412C27.9651 41.3141 27.8408 41.2566 27.3736 39.7442C22.8519 25.1046 30.2279 9.07419 43.6663 4.33424C47.243 3.07263 49.0816 2.9688 52.4973 3.83531ZM61.6835 5.39381C73.8104 10.9969 78.6778 26.0773 73.0607 40.6432C72.3034 42.6068 72.1429 42.5595 72.6583 40.5246C76.1706 26.6575 71.5212 12.5221 61.1585 5.56207C59.6252 4.53231 59.7395 4.49561 61.6835 5.39381ZM36.1563 5.89963C30.7641 10.2551 27.6325 14.6448 25.6149 20.676C23.4957 27.0109 23.384 32.9962 25.2569 39.8476C25.8449 41.9986 25.8532 42.0831 25.5021 42.3397C25.042 42.6762 25.0636 42.7157 24.0825 39.7688C19.7372 26.7186 24.2689 13.0519 35.1797 6.30056C36.5868 5.42988 36.8937 5.30395 36.1563 5.89963ZM50.0202 32.8025C52.1783 34.9606 50.2704 39.8818 47.9755 38.0766C46.5173 36.9297 46.5173 33.8204 47.9755 32.6734C48.7048 32.0997 49.3584 32.1409 50.0202 32.8025ZM45.0993 37.4255C46.2249 41.6342 51.8053 41.3819 52.8658 37.0744L53.0002 36.5279L54.3928 36.6559C60.1139 37.1824 65.4808 38.8101 67.0564 40.4966C70.9876 44.7051 53.205 48.3667 39.8508 46.0987C27.2207 43.9535 27.2355 39.2429 39.879 37.1567C44.7861 36.3469 44.8113 36.3484 45.0993 37.4255ZM26.7812 44.2483C26.7812 44.2948 27.0446 45.0468 27.3665 45.9196C28.0581 47.7957 27.87 47.7859 26.7618 45.8885C26.1218 44.7927 26.0104 44.4729 26.2218 44.3388C26.5096 44.1566 26.7812 44.1126 26.7812 44.2483ZM54.8087 55.9489C53.7448 56.2979 53.1435 56.6255 52.5468 57.1811L52.0428 57.6502L50.6914 57.3325C47.3633 56.5498 44.043 57.7169 42.8892 60.0752L42.3861 61.1038L41.2629 61.2057C38.2152 61.482 35.9934 63.6382 36.4221 65.9035C36.4871 66.2465 36.5637 66.6731 36.5924 66.8512C36.6225 67.0375 36.3616 67.3695 35.979 67.6324C33.3766 69.4209 33.4815 72.9388 36.1704 74.0526C36.666 74.258 36.7457 74.3741 36.6222 74.7115C35.6325 77.4165 37.8818 80.1184 41.3885 80.4363C42.4916 80.5364 42.5698 80.5769 42.6749 81.1023C43.1786 83.6209 47.5266 85.1062 51.4503 84.1005C51.8664 83.9939 52.1016 84.0571 52.4275 84.3632C54.6032 86.407 59.8971 86.407 62.0727 84.3632C62.399 84.0567 62.6332 83.9939 63.0497 84.1013C66.9392 85.1048 71.3245 83.6059 71.8254 81.1023C71.9304 80.5769 72.0084 80.5364 73.1116 80.4363C76.6085 80.1192 78.821 77.4807 77.8963 74.7304C77.7904 74.4152 77.9433 74.2269 78.6893 73.7538C81.1078 72.2203 81.0292 69.356 78.521 67.6324C78.1384 67.3695 77.8778 67.0375 77.9076 66.8512C77.9364 66.6731 78.0131 66.2465 78.0779 65.9035C78.5068 63.6382 76.2849 61.482 73.2373 61.2057L72.1139 61.1038L71.6108 60.0752C70.457 57.7169 67.1369 56.5498 63.8089 57.3325L62.4574 57.6502L61.9533 57.1676C60.6372 55.9074 56.8854 55.2673 54.8087 55.9489ZM58.9438 59.1045C60.1414 59.4602 61.5932 60.6872 62.055 61.7338L62.3901 62.4934L63.3662 62.1085C68.2365 60.1889 72.6873 62.6716 70.8567 66.2872L70.4009 67.1875L71.394 67.4212C76.3262 68.5823 76.807 72.3721 72.2196 73.9296C71.7132 74.1014 71.1753 74.2421 71.0243 74.2421C70.5558 74.2421 70.5291 74.5457 70.9282 75.3288C72.847 79.0922 68.0182 81.4015 62.7189 79.2548C62.5125 79.1712 62.2525 79.4381 61.8399 80.1559C60.7377 82.0741 58.3965 83.1015 56.1777 82.641C54.6916 82.3324 53.3772 81.404 52.6602 80.1559C52.2478 79.4381 51.9876 79.1712 51.7814 79.2548C46.4818 81.4015 41.6533 79.0922 43.5718 75.3288C43.9711 74.5457 43.9442 74.2421 43.4759 74.2421C43.3248 74.2421 42.7868 74.1014 42.2806 73.9296C37.6933 72.3721 38.1741 68.5823 43.1063 67.4212L44.0991 67.1875L43.6433 66.2872C41.8547 62.7542 45.911 60.3069 50.7604 61.9934L52.1216 62.4667L52.4509 61.7207C53.4241 59.5148 56.3524 58.3349 58.9438 59.1045ZM55.7699 61.3312C54.1947 62.0468 53.726 63.3209 54.182 65.6483C54.4547 67.0407 54.3042 66.9579 56.0783 66.691C56.7682 66.5872 57.2404 66.3149 58.2746 65.425C58.9991 64.8016 59.8045 64.1522 60.0643 63.982C60.4734 63.7139 60.5134 63.5919 60.3641 63.0711C59.8698 61.3471 57.6149 60.4933 55.7699 61.3312ZM46.2316 63.7037C44.2138 64.3071 45.5905 66.3341 49.254 68.153C51.6494 69.3423 51.5831 69.3329 52.1489 68.5675C52.5816 67.9822 52.5841 67.9478 52.2832 66.7484C52.1145 66.076 51.9765 65.3446 51.9765 65.1229C51.9765 64.1482 48.0163 63.1699 46.2316 63.7037ZM64.8876 63.809C63.5685 64.1638 62.3256 64.8352 60.8628 65.9834L59.7249 66.8764L60.4108 67.2283C60.9811 67.5208 61.2975 67.5519 62.2869 67.412C62.9413 67.3196 64.3829 67.1804 65.4904 67.103L67.5041 66.9621L68.3341 66.1356C70.3067 64.1716 68.3789 62.8701 64.8876 63.809ZM12.1329 65.8623C6.59171 66.5801 1.90243 69.1052 1.17603 71.7625C0.0272146 75.9641 2.53834 86.1227 5.68559 90.0053C10.8177 96.3365 22.4324 96.3365 27.5645 90.0053C30.7118 86.1227 33.2229 75.9641 32.0741 71.7625C30.923 67.5525 21.2281 64.684 12.1329 65.8623ZM21.8976 68.1134C27.8625 69.149 31.5197 71.9897 29.6622 74.1441L29.2227 74.6537L27.7351 73.9659C21.7337 71.1904 11.5164 71.1904 5.51504 73.9659L4.02742 74.6537L3.58791 74.1441C0.273657 70.3003 12.0856 66.4098 21.8976 68.1134ZM55.9409 68.7749C51.6598 69.6627 53.0021 73.0825 57.5338 72.8335C59.8756 72.7047 61.1564 71.942 61.1564 70.6758C61.1564 69.3662 58.2308 68.3 55.9409 68.7749ZM43.5664 69.4307C38.2375 70.8676 43.0074 72.9985 50.0235 72.315C51.3189 72.1889 51.7866 71.7043 51.0001 71.3034C46.6586 69.0908 45.7112 68.8523 43.5664 69.4307ZM63.9396 69.2972C62.3953 69.4544 62.8081 69.9555 65.5997 71.3115C68.3449 72.6455 69.3044 72.756 71.5143 71.9929C75.9215 70.4715 70.6913 68.6102 63.9396 69.2972ZM62.4351 72.8652L61.9168 73.4063L62.2685 75.1145C62.6751 77.09 62.9726 77.3493 65.4251 77.8637C68.5976 78.5292 70.2118 77.2393 68.4292 75.4629C67.7219 74.7582 66.3978 73.9669 64.0568 72.8504L62.9534 72.3242L62.4351 72.8652ZM19.536 74.0616C21.9631 74.2888 24.8518 74.9481 26.3307 75.6122L27.2695 76.0337L26.2929 76.4274C20.9383 78.5859 12.3118 78.5859 6.957 76.4274L5.98061 76.0337L6.91947 75.6122C9.96247 74.2457 14.9537 73.6323 19.536 74.0616ZM51.0001 74.2649C50.1943 74.3543 48.9342 74.4815 48.1994 74.5476C45.3205 74.8063 44.1815 77.492 46.7514 77.9619C48.6285 78.3051 51.0414 77.5114 53.3709 75.7846C54.934 74.6258 54.9032 74.6931 54.0338 74.3299C53.3011 74.0238 53.1914 74.0213 51.0001 74.2649ZM59.0078 74.828C58.7393 74.9141 58.2639 74.9931 57.9514 75.004C57.55 75.0177 57.062 75.3249 56.2911 76.0488C55.6907 76.6127 54.9142 77.2939 54.566 77.5624L53.9326 78.0507L54.2994 78.8522C55.3644 81.1788 59.183 81.1308 60.2238 78.7778C60.5724 77.9898 60.5891 77.7597 60.3931 76.4416C60.102 74.4842 60.0974 74.4792 59.0078 74.828ZM34.4076 83.1118C34.3976 88.9111 34.5052 89.4475 35.8554 90.3322L36.3516 90.6574V85.6087V80.5602L35.8443 80.0867C35.5652 79.8263 35.1298 79.2177 34.8767 78.7344L34.4168 77.8554L34.4076 83.1118ZM79.639 78.677C79.4382 79.1226 79.0208 79.7295 78.7111 80.026L78.1484 80.5652V85.6112V90.6574L78.6448 90.3322C78.9178 90.1533 79.3587 89.6358 79.6246 89.1819L80.1081 88.3569L80.0559 83.112L80.004 77.867L79.639 78.677ZM38.5 89.0316V96.139L39.4057 96.5397C39.9038 96.7599 40.8266 96.987 41.4564 97.0441L42.6017 97.1479V90.8457V84.5433L41.9426 83.814C41.5803 83.4128 41.2069 82.9627 41.1126 82.8136C41.0186 82.6643 40.3921 82.4033 39.7207 82.2332L38.5 81.924V89.0316ZM74.7305 82.2227C74.0861 82.3941 73.4816 82.6581 73.3874 82.8094C73.2934 82.9608 72.9197 83.4128 72.5574 83.814L71.8985 84.5433V90.8457V97.1479L73.0436 97.0441C73.6735 96.987 74.5965 96.7599 75.0946 96.5397L76.0001 96.139V88.9993C76.0001 85.0723 75.9782 81.871 75.9513 81.8852C75.9244 81.8996 75.375 82.0514 74.7305 82.2227ZM44.75 93.0758V100.191L45.8315 100.595C46.6726 100.91 47.3677 101 48.9567 101H51.0001V93.7155V86.431L49.1846 86.5105C47.9234 86.5657 46.9945 86.494 46.1415 86.2755C45.4662 86.1024 44.877 85.9609 44.832 85.9609C44.787 85.9609 44.75 89.1625 44.75 93.0758ZM68.2853 86.2872C67.6471 86.4688 66.6486 86.5426 65.4043 86.5002L63.5001 86.4354V93.7178V101H65.5436C67.1323 101 67.8276 100.91 68.6685 100.595L69.75 100.191V93.0758C69.75 87.5012 69.6972 85.9661 69.5058 85.985C69.3716 85.9984 68.8224 86.1343 68.2853 86.2872ZM53.1485 94.1431V101H57.25H61.3516V94.1639C61.3516 90.4043 61.3236 87.3282 61.2894 87.3282C61.2552 87.3282 60.7498 87.4758 60.1665 87.6566C58.4332 88.193 55.1811 88.0663 53.4293 87.3941C53.1885 87.3017 53.1485 88.261 53.1485 94.1431Z" fill="white"/>
</svg>
